<?xml version="1.0" encoding="utf-8"?>
<!-- Generator: Adobe Illustrator 19.2.1, SVG Export Plug-In . SVG Version: 6.00 Build 0)  -->
<svg version="1.1" xmlns="http://www.w3.org/2000/svg" xmlns:xlink="http://www.w3.org/1999/xlink" x="0px" y="0px"
	 viewBox="0 0 512 512" style="enable-background:new 0 0 512 512;" xml:space="preserve">
<style type="text/css">
	.st0{display:none;}
	.st1{fill:#75A897;}
	.st2{fill:#D5872A;}
	.st3{fill:#5082A9;}
	.st4{fill:#E09C6F;}
	.st5{fill:#E4C856;}
	.st6{fill:#87B7DD;}
	.st7{fill:#B9BDC2;}
	.st8{fill:#57646E;}
	.st9{fill:#CA6A46;}
	.st10{fill:#1F3049;}
	.st11{fill:#298063;}
	.st12{fill:#C93A3A;}
	.st13{fill:#DA8B80;}
	.st14{fill:#C9402E;}
	.st15{fill:#E29E6F;}
	.st16{fill:#A32929;}
	.st17{fill:#F5F5F5;}
	.st18{fill:#C9553E;}
	.st19{fill:#E09E9A;}
	.st20{fill:#FFFFFF;}
	.st21{fill:#E6A585;}
	.st22{fill:#4E3333;}
	.st23{fill:#2B5F87;}
	.st24{opacity:0.31;fill:#FFFFFF;}
	.st25{fill:#E6CA56;}
	.st26{fill:#4D917B;}
	.st27{fill:#B8B8B8;}
	.st28{fill:#8998A0;}
	.st29{fill:#394755;}
	.st30{fill:#F2D1B4;}
	.st31{fill:#ECE4C7;}
	.st32{fill:#F1CB58;}
	.st33{fill:#E1E1E1;}
</style>
<g id="GUIDELINES" class="st0">
</g>
<g id="Layer_9">
</g>
<g id="ICON">
	<ellipse class="st1" cx="256.4" cy="254.4" rx="256" ry="256"/>
</g>
<g id="Layer_8">
	<g>
		<g>
			<rect x="132.7" y="183.2" class="st14" width="93.2" height="99"/>
			<polygon class="st23" points="120,186.8 182.5,109.9 280,109.9 217.5,186.8 			"/>
			<rect x="132.7" y="195.7" class="st9" width="85.9" height="86.5"/>
			<polygon class="st14" points="279.7,116.5 336.6,183.2 336.6,282.2 222.9,282.2 222.9,183.2 			"/>
			<g>
				<path class="st10" d="M344.2,186.8h-10.8l-53.7-63l-53.7,63h-11.8l65.5-76.9l65.7,77C345,186.9,344.6,186.8,344.2,186.8z"/>
			</g>
			<g>
				<rect x="261.7" y="239.7" class="st7" width="30.1" height="42.5"/>
				<g>
					<g>
						<rect x="257.6" y="177.2" class="st17" width="38.2" height="38.2"/>
						<rect x="274.3" y="173" class="st14" width="4.8" height="46.6"/>
						<rect x="253.4" y="193.9" class="st14" width="46.6" height="4.8"/>
					</g>
					<rect x="254" y="216.3" class="st10" width="45.3" height="6.5"/>
				</g>
			</g>
		</g>
		<g>
			<g>
				<path class="st10" d="M272,323.9l-57.7,57.7c-2.3,2.3-2.3,6,0,8.3l14.5,14.5c2.3,2.3,6,2.3,8.3,0l59.4-59.4
					C286.8,339.9,278.2,333.4,272,323.9z"/>
			</g>
			<path class="st10" d="M328.3,225.9c-37.3-0.1-67.7,30.1-67.8,67.4c-0.1,37.3,30.1,67.7,67.4,67.8c37.3,0.1,67.7-30.1,67.8-67.4
				C395.8,256.3,365.6,226,328.3,225.9z M328,350.3c-31.4-0.1-56.8-25.6-56.7-57c0.1-31.4,25.6-56.8,57-56.7
				c31.4,0.1,56.8,25.6,56.7,57C384.9,325,359.4,350.4,328,350.3z"/>
			<path class="st24" d="M328.2,236.6c-31.4-0.1-56.9,25.3-57,56.7c-0.1,31.4,25.3,56.9,56.7,57c31.4,0.1,56.9-25.3,57-56.7
				C385,262.2,359.7,236.7,328.2,236.6z"/>
			<circle class="st20" cx="330" cy="274" r="21"/>
		</g>
	</g>
</g>
</svg>
